<svg width="31" height="32" viewBox="0 0 31 32" fill="none" xmlns="http://www.w3.org/2000/svg">
<g clip-path="url(#clip0_194_2531)">
<path d="M28.374 12.6072C28.9183 12.0423 29.1105 11.2134 28.8756 10.4438C28.6407 9.67428 28.0276 9.12397 27.2754 9.00766L20.6981 7.99022C20.569 7.97028 20.4574 7.88397 20.3996 7.75935L17.4582 1.41466C17.1218 0.689031 16.4407 0.238281 15.6806 0.238281C14.9205 0.238281 14.2393 0.689031 13.9029 1.41466L10.9615 7.75941C10.9037 7.88397 10.7921 7.97028 10.663 7.99028L4.08583 9.00766C3.33363 9.12397 2.72053 9.67428 2.48557 10.4438C2.25061 11.2134 2.44283 12.0423 2.98719 12.6072L7.74651 17.5458C7.83991 17.6428 7.8826 17.7825 7.86052 17.9195L6.73699 24.893C6.60853 25.6905 6.91065 26.4813 7.52558 26.957C8.14051 27.4327 8.94061 27.4942 9.61331 27.1177L15.4961 23.8253C15.6116 23.7606 15.7496 23.7606 15.8652 23.8253L21.748 27.1177C22.0406 27.2815 22.3572 27.3624 22.6723 27.3624C23.0815 27.3624 23.4882 27.2259 23.8356 26.9569C24.4505 26.4812 24.7527 25.6903 24.6241 24.8929L23.5006 17.9194C23.4786 17.7825 23.5212 17.6428 23.6146 17.5458L28.374 12.6072ZM21.9377 18.2049L23.0612 25.1785C23.0988 25.4119 22.9635 25.545 22.9035 25.5913C22.8435 25.6375 22.6828 25.7336 22.486 25.6234L16.6031 22.3309C16.3143 22.1693 15.9975 22.0885 15.6807 22.0885C15.3638 22.0885 15.047 22.1693 14.7582 22.3308L8.87544 25.6232C8.67853 25.7334 8.51784 25.6375 8.4579 25.5912C8.39795 25.5448 8.26257 25.4118 8.3002 25.1784L9.42373 18.2049C9.53405 17.5202 9.32099 16.822 8.8536 16.337L4.09428 11.3983C3.935 11.233 3.97105 11.0407 3.994 10.9657C4.01684 10.8906 4.09393 10.7124 4.31403 10.6784L10.8911 9.66097C11.5369 9.5611 12.0949 9.1296 12.3838 8.50653L15.3252 2.16178C15.4237 1.94947 15.6066 1.92653 15.6807 1.92653C15.7548 1.92653 15.9377 1.94941 16.0362 2.16178V2.16184L18.9777 8.5066C19.2665 9.12966 19.8244 9.56116 20.4702 9.66103L27.0474 10.6785C27.2675 10.7125 27.3445 10.8907 27.3674 10.9657C27.3903 11.0408 27.4264 11.2332 27.2671 11.3984L22.5078 16.3371C22.0404 16.822 21.8274 17.5202 21.9377 18.2049Z" fill="white"/>
<path d="M24.9438 1.41418C24.5894 1.14018 24.0936 1.22381 23.8362 1.60093L22.9945 2.83418C22.7371 3.21131 22.8156 3.73924 23.1699 4.01324C23.3108 4.12206 23.4738 4.17449 23.6354 4.17449C23.8806 4.17449 24.1224 4.05381 24.2775 3.82656L25.1192 2.59331C25.3766 2.21612 25.2981 1.68818 24.9438 1.41418Z" fill="white"/>
<path d="M8.36206 2.82921L7.52034 1.59596C7.26301 1.21896 6.76715 1.13533 6.41277 1.40921C6.05852 1.68321 5.97997 2.21115 6.23735 2.58827L7.07907 3.82152C7.23424 4.04896 7.47601 4.16958 7.7213 4.16958C7.88293 4.16958 8.04603 4.11715 8.1867 4.00827C8.54095 3.73433 8.6195 3.2064 8.36206 2.82921Z" fill="white"/>
<path d="M3.55939 19.1762C3.42406 18.7329 2.97675 18.4902 2.56021 18.6343L1.19831 19.1054C0.781765 19.2495 0.553911 19.7258 0.689238 20.1691C0.798086 20.5259 1.10896 20.7527 1.44319 20.7527C1.52439 20.7527 1.60699 20.7392 1.68842 20.7111L3.05032 20.2399C3.4668 20.0959 3.69472 19.6197 3.55939 19.1762Z" fill="white"/>
<path d="M15.6792 28.5488C15.2413 28.5488 14.8863 28.9268 14.8863 29.3929V30.9174C14.8863 31.3836 15.2413 31.7616 15.6792 31.7616C16.1171 31.7616 16.4722 31.3836 16.4722 30.9174V29.3929C16.4722 28.9267 16.1172 28.5488 15.6792 28.5488Z" fill="white"/>
<path d="M30.161 19.1073L28.7991 18.6362C28.3827 18.4923 27.9352 18.7348 27.7999 19.1782C27.6646 19.6217 27.8924 20.0978 28.309 20.2419L29.6709 20.713C29.7523 20.7412 29.8349 20.7545 29.916 20.7545C30.2503 20.7545 30.5612 20.5277 30.6701 20.171C30.8054 19.7276 30.5775 19.2514 30.161 19.1073Z" fill="white"/>
</g>
<defs>
<clipPath id="clip0_194_2531">
<rect width="30.0595" height="32" fill="white" transform="translate(0.650024)"/>
</clipPath>
</defs>
</svg>
