<svg width="40" height="41" viewBox="0 0 40 41" fill="none" xmlns="http://www.w3.org/2000/svg">
<path d="M36.4062 0.866211H3.59375C1.7825 0.866211 0.3125 2.33621 0.3125 4.14746V31.71C0.3125 33.5212 1.7825 34.9912 3.59375 34.9912H26.3263C26.6872 34.9912 26.9825 34.6959 26.9825 34.335C26.9825 33.974 26.6872 33.6787 26.3263 33.6787H3.59375C2.51094 33.6787 1.625 32.7928 1.625 31.71V6.11621H38.375V31.71C38.375 32.1037 38.2569 32.4843 38.0403 32.8059C37.8369 33.1078 37.9156 33.5146 38.2175 33.7181C38.5194 33.9215 38.9263 33.8428 39.1297 33.5409C39.4972 32.9962 39.6875 32.3662 39.6875 31.71V4.14746C39.6875 2.33621 38.2175 0.866211 36.4062 0.866211ZM1.625 4.14746C1.625 3.06465 2.51094 2.17871 3.59375 2.17871H27.875V4.80371H1.625V4.14746ZM29.1875 4.80371V2.17871H36.4062C37.4891 2.17871 38.375 3.06465 38.375 4.14746V4.80371H29.1875Z" fill="url(#paint0_linear_194_3037)"/>
<path d="M32.285 30.3775C31.4056 29.6294 30.1522 29.5572 29.1875 30.1216L27.3959 28.33C28.9118 26.5975 29.8372 24.34 29.8372 21.8594C29.8372 20.875 29.6928 19.9103 29.4106 18.985C29.345 18.6897 29.0825 18.4731 28.7675 18.4731C28.4065 18.4731 28.1112 18.7684 28.1112 19.1359C28.1112 19.2016 28.1243 19.2672 28.144 19.3328C28.4 20.1466 28.5247 20.9931 28.5247 21.8594C28.5247 26.5647 24.6987 30.3906 19.9934 30.3906C15.2881 30.3906 11.4622 26.5647 11.4622 21.8594C11.4622 17.1541 15.2881 13.3281 19.9934 13.3281C21.9556 13.3281 23.7997 13.9778 25.3222 15.205C25.6043 15.4347 26.0178 15.3888 26.2475 15.1066C26.4772 14.8244 26.4312 14.4109 26.149 14.1813C24.3837 12.7638 22.2575 12.0156 19.9934 12.0156C14.5662 12.0156 10.1497 16.4322 10.1497 21.8594C10.1497 27.2866 14.5662 31.7031 19.9934 31.7031C22.474 31.7031 24.7315 30.7778 26.464 29.2553L28.249 31.0403C27.6847 31.9984 27.7503 33.2519 28.505 34.1378L32.9018 39.2959C33.3875 39.8603 34.0897 40.2016 34.8312 40.2344H34.9362C35.645 40.2344 36.3275 39.9522 36.8262 39.4534L37.5809 38.6988C38.1059 38.1738 38.3881 37.4453 38.3618 36.7038C38.3356 35.9622 37.9943 35.26 37.4234 34.7744L32.2653 30.3775H32.285ZM36.6687 37.7734L35.914 38.5281C35.645 38.7972 35.284 38.9416 34.8968 38.9284C34.5162 38.9153 34.1684 38.7447 33.919 38.4494L29.5222 33.2912C29.0628 32.7531 29.0956 31.9459 29.5943 31.4472C29.8568 31.1847 30.2047 31.0534 30.5525 31.0534C30.8675 31.0534 31.1825 31.1584 31.4318 31.375L36.59 35.7719C36.8853 36.0212 37.0493 36.3691 37.069 36.7497C37.0822 37.1303 36.9443 37.4912 36.6753 37.7669L36.6687 37.7734Z" fill="url(#paint1_linear_194_3037)"/>
<path d="M19.1534 18.7753C18.8975 18.5193 18.484 18.5193 18.2281 18.7753L14.2906 22.7128C14.0346 22.9687 14.0346 23.3821 14.2906 23.6381C14.4218 23.7693 14.5859 23.8284 14.7565 23.8284C14.9271 23.8284 15.0912 23.7628 15.2225 23.6381L18.694 20.1665L21.5093 22.9818C21.634 23.1065 21.8112 23.1656 21.9818 23.1721C22.159 23.1721 22.3296 23.0934 22.4478 22.9687L32.4687 12.3571V14.6475C32.4687 15.0084 32.764 15.3037 33.125 15.3037C33.4859 15.3037 33.7812 15.0084 33.7812 14.6475V10.71C33.7812 10.349 33.4859 10.0537 33.125 10.0537H29.1875C28.8265 10.0537 28.5312 10.349 28.5312 10.71C28.5312 11.0709 28.8265 11.3662 29.1875 11.3662H31.6025L21.9556 21.584L19.1534 18.7818V18.7753Z" fill="url(#paint2_linear_194_3037)"/>
<defs>
<linearGradient id="paint0_linear_194_3037" x1="20" y1="0.866211" x2="20" y2="34.9912" gradientUnits="userSpaceOnUse">
<stop stop-color="#FE4139"/>
<stop offset="1" stop-color="#FFBE36"/>
</linearGradient>
<linearGradient id="paint1_linear_194_3037" x1="24.2566" y1="12.0156" x2="24.2566" y2="40.2344" gradientUnits="userSpaceOnUse">
<stop stop-color="#FE4139"/>
<stop offset="1" stop-color="#FFBE36"/>
</linearGradient>
<linearGradient id="paint2_linear_194_3037" x1="23.9399" y1="10.0537" x2="23.9399" y2="23.8284" gradientUnits="userSpaceOnUse">
<stop stop-color="#FE4139"/>
<stop offset="1" stop-color="#FFBE36"/>
</linearGradient>
</defs>
</svg>
