<svg width="40" height="40" viewBox="0 0 40 40" fill="none" xmlns="http://www.w3.org/2000/svg">
<g clip-path="url(#clip0_194_4091)">
<path d="M25.5686 12.9749C21.6785 7.25178 16.4829 4.21002 13.762 6.07376C13.4624 6.28475 13.202 6.54658 12.9928 6.84738C12.9928 6.86936 6.69385 19.6166 6.69385 19.6166L3.17737 21.999C2.63754 22.3655 2.1752 22.8347 1.81675 23.3799C1.45831 23.9251 1.21079 24.5355 1.08833 25.1764C0.965872 25.8173 0.970877 26.476 1.10306 27.1149C1.23524 27.7538 1.492 28.3605 1.85869 28.9001L2.01693 29.1331C2.75812 30.2128 3.89509 30.9568 5.18124 31.2036C6.46738 31.4505 7.799 31.1803 8.88726 30.4518L14.5356 38.7727C15.3664 39.7968 16.962 40.8166 18.9312 39.6166C19.2801 39.3904 19.5777 39.0936 19.8048 38.7453C20.0319 38.3971 20.1835 38.0051 20.2499 37.5946C20.3295 37.1864 20.3273 36.7664 20.2435 36.359C20.1598 35.9516 19.9961 35.5648 19.762 35.221L14.7862 27.8804C14.7862 27.8804 26.5488 26.9441 26.5928 26.9265C26.96 26.8496 27.3082 26.7002 27.6169 26.4869C29.0147 25.5375 29.5158 23.5463 29.0323 20.8782C28.5972 18.421 27.362 15.6386 25.5686 12.9749ZM3.29605 28.2672L3.13781 28.0342C2.88482 27.6617 2.70776 27.243 2.61679 26.8021C2.52581 26.3611 2.52269 25.9065 2.60761 25.4644C2.69254 25.0222 2.86383 24.6011 3.1117 24.2252C3.35956 23.8493 3.67913 23.526 4.0521 23.2738L7.08946 21.2078L11.0983 27.1111L8.06089 29.1771C7.68835 29.4304 7.26953 29.6078 6.82839 29.6992C6.38725 29.7905 5.93242 29.7941 5.4899 29.7096C5.04739 29.6251 4.62587 29.4542 4.24944 29.2067C3.873 28.9592 3.54903 28.6399 3.29605 28.2672ZM18.4961 36.0869C18.7363 36.4444 18.8249 36.8826 18.7425 37.3053C18.6601 37.728 18.4134 38.1008 18.0565 38.3419C17.6983 38.5824 17.2595 38.6711 16.836 38.5887C16.4126 38.5064 16.039 38.2595 15.7972 37.9023L10.1664 29.6078L12.4301 28.0694L13.0279 28.021L18.4961 36.0869ZM12.5532 26.5133L8.18397 20.0782L12.351 11.5815C12.7554 13.9683 13.9378 16.8034 15.8279 19.5858C17.718 22.3683 19.9158 24.5133 21.9818 25.7705L12.5532 26.5133ZM25.5202 25.4891C23.4191 25.3529 19.9993 22.9837 17.1026 18.7155C14.2059 14.4474 13.2653 10.4078 13.9114 8.39903C14.0281 8.02197 14.261 7.69143 14.5767 7.45461C14.8925 7.21779 15.275 7.0868 15.6697 7.08035C17.7532 7.08035 21.3004 9.46277 24.2807 13.854C25.9598 16.3243 27.1818 18.9089 27.5158 21.1683C28.1708 25.4891 25.5202 25.4891 25.5202 25.4891Z" fill="url(#paint0_linear_194_4091)"/>
<path d="M20.074 13.1369C19.5356 13.0312 18.9815 13.0339 18.4441 13.1448C17.9068 13.2558 17.3969 13.4728 16.9444 13.7831C16.861 13.8408 16.7897 13.9144 16.7348 13.9996C16.6798 14.0849 16.6422 14.1801 16.624 14.2799C16.6058 14.3797 16.6075 14.4821 16.6289 14.5813C16.6503 14.6804 16.6911 14.7744 16.7488 14.8578C16.8065 14.9412 16.8801 15.0124 16.9653 15.0674C17.0506 15.1224 17.1458 15.16 17.2456 15.1782C17.3454 15.1964 17.4478 15.1947 17.547 15.1733C17.6461 15.1519 17.7401 15.1111 17.8235 15.0534C18.1101 14.8589 18.4322 14.7227 18.7714 14.6527C19.1107 14.5826 19.4604 14.5801 19.8006 14.6452C20.1408 14.7103 20.4648 14.8418 20.7542 15.0321C21.0436 15.2224 21.2927 15.4679 21.4872 15.7545C21.6818 16.0411 21.8179 16.3632 21.888 16.7024C21.958 17.0417 21.9606 17.3914 21.8955 17.7316C21.8304 18.0718 21.6989 18.3958 21.5086 18.6852C21.3182 18.9746 21.0727 19.2237 20.7861 19.4182C20.651 19.5116 20.5493 19.6457 20.4959 19.801C20.4424 19.9563 20.4401 20.1246 20.4892 20.2813C20.5384 20.438 20.6364 20.5749 20.7689 20.6719C20.9014 20.7689 21.0615 20.821 21.2257 20.8204C21.3824 20.8234 21.5361 20.7773 21.6653 20.6886C22.3489 20.2254 22.8798 19.5698 23.1905 18.8047C23.5013 18.0396 23.578 17.1995 23.4109 16.3908C23.2438 15.5821 22.8404 14.8412 22.2518 14.262C21.6633 13.6827 20.9161 13.2912 20.1048 13.1369H20.074Z" fill="url(#paint1_linear_194_4091)"/>
<path d="M26.518 7.62521H26.5927C26.783 7.62513 26.9665 7.55454 27.1077 7.42709C27.249 7.29963 27.338 7.12435 27.3576 6.9351L27.951 1.16806C27.9645 1.06609 27.9574 0.962439 27.9301 0.86325C27.9029 0.76406 27.856 0.671345 27.7923 0.59059C27.7286 0.509835 27.6493 0.442681 27.5592 0.3931C27.469 0.34352 27.3699 0.31252 27.2676 0.301935C27.1652 0.29135 27.0618 0.301395 26.9635 0.331476C26.8651 0.361557 26.7738 0.411062 26.6949 0.477063C26.616 0.543064 26.5511 0.62422 26.5041 0.715729C26.4571 0.807238 26.429 0.907242 26.4213 1.00982L25.8323 6.78125C25.8114 6.98408 25.8719 7.18691 26.0005 7.34516C26.129 7.50342 26.3152 7.60414 26.518 7.62521Z" fill="url(#paint2_linear_194_4091)"/>
<path d="M36.4609 6.43874C36.348 6.26849 36.1722 6.14983 35.9721 6.10865C35.772 6.06748 35.5637 6.10713 35.3928 6.21896L30.0345 9.73544C29.8954 9.82732 29.7899 9.9619 29.7339 10.1189C29.6778 10.276 29.6744 10.447 29.724 10.6062C29.7735 10.7653 29.8735 10.9041 30.0088 11.0015C30.1441 11.099 30.3074 11.1498 30.4741 11.1464C30.6296 11.15 30.7826 11.1072 30.9136 11.0234L36.2719 7.50687C36.4381 7.38992 36.5513 7.21193 36.5867 7.01179C36.6221 6.81166 36.5769 6.60564 36.4609 6.43874Z" fill="url(#paint3_linear_194_4091)"/>
<path d="M38.1004 15.8274L31.8675 14.7065C31.6664 14.6703 31.4592 14.7156 31.2914 14.8322C31.1237 14.9489 31.0091 15.1274 30.973 15.3285C30.9368 15.5296 30.9821 15.7368 31.0987 15.9045C31.2153 16.0723 31.3938 16.1868 31.5949 16.223L37.8235 17.3438H37.9598C38.1558 17.3496 38.3466 17.2802 38.4931 17.15C38.6397 17.0198 38.7311 16.8385 38.7485 16.6432C38.7659 16.4479 38.708 16.2533 38.5867 16.0992C38.4655 15.9451 38.29 15.8432 38.096 15.8142L38.1004 15.8274Z" fill="url(#paint4_linear_194_4091)"/>
</g>
<defs>
<linearGradient id="paint0_linear_194_4091" x1="15.1059" y1="5.52637" x2="15.1059" y2="40.1593" gradientUnits="userSpaceOnUse">
<stop stop-color="#FE4139"/>
<stop offset="1" stop-color="#FFBE36"/>
</linearGradient>
<linearGradient id="paint1_linear_194_4091" x1="20.0543" y1="13.0596" x2="20.0543" y2="20.8206" gradientUnits="userSpaceOnUse">
<stop stop-color="#FE4139"/>
<stop offset="1" stop-color="#FFBE36"/>
</linearGradient>
<linearGradient id="paint2_linear_194_4091" x1="26.8929" y1="0.297852" x2="26.8929" y2="7.62521" gradientUnits="userSpaceOnUse">
<stop stop-color="#FE4139"/>
<stop offset="1" stop-color="#FFBE36"/>
</linearGradient>
<linearGradient id="paint3_linear_194_4091" x1="33.1438" y1="6.09277" x2="33.1438" y2="11.1466" gradientUnits="userSpaceOnUse">
<stop stop-color="#FE4139"/>
<stop offset="1" stop-color="#FFBE36"/>
</linearGradient>
<linearGradient id="paint4_linear_194_4091" x1="34.8562" y1="14.6943" x2="34.8562" y2="17.3442" gradientUnits="userSpaceOnUse">
<stop stop-color="#FE4139"/>
<stop offset="1" stop-color="#FFBE36"/>
</linearGradient>
<clipPath id="clip0_194_4091">
<rect width="40" height="40" fill="white"/>
</clipPath>
</defs>
</svg>
