<svg width="40" height="40" viewBox="0 0 40 40" fill="none" xmlns="http://www.w3.org/2000/svg">
<path d="M32.0164 25.8158H15.2961C15.2945 25.8158 15.293 25.8158 15.2914 25.8158H7.98439C7.63907 25.8158 7.36017 26.0955 7.36017 26.44L7.36251 28.8393C7.36329 29.1096 7.53673 29.3486 7.79376 29.4322L9.74923 30.0689C9.99142 30.99 10.3563 31.8689 10.8359 32.6916L9.90236 34.526C9.7797 34.7666 9.82657 35.0596 10.0172 35.251L12.1102 37.3439C12.3016 37.5354 12.5938 37.5814 12.8352 37.4588L14.6695 36.5252C15.4914 37.0049 16.3703 37.3697 17.2914 37.6119L17.9281 39.5689C18.0117 39.826 18.2516 40.0002 18.5219 40.0002H21.4828C21.7539 40.0002 21.9938 39.826 22.0766 39.5682L22.711 37.6119C23.632 37.3697 24.511 37.0049 25.3328 36.5252L27.1672 37.4588C27.4078 37.5814 27.7 37.5354 27.8914 37.3439L29.9852 35.2502C30.1758 35.0588 30.2219 34.7666 30.1 34.526L29.1664 32.6916C29.6461 31.8697 30.011 30.99 30.2531 30.0689L32.2102 29.4322C32.4672 29.3486 32.6414 29.1088 32.6414 28.8385V26.44C32.6406 26.0955 32.361 25.8158 32.0164 25.8158ZM24.1633 27.3596C24.1633 29.6549 22.2953 31.5229 20 31.5229C17.7047 31.5229 15.8367 29.6549 15.8367 27.3596C15.8367 27.2619 15.8414 27.1635 15.8484 27.065H24.1516C24.1586 27.1635 24.1633 27.2611 24.1633 27.3596ZM31.3914 28.3853L29.5352 28.9893C29.3258 29.0572 29.168 29.2299 29.1188 29.4447C28.8852 30.4713 28.4828 31.4432 27.9219 32.333C27.8047 32.5197 27.7938 32.7541 27.8938 32.9502L28.7797 34.6893L27.3281 36.1408L25.5891 35.2549C25.393 35.1549 25.1586 35.165 24.9719 35.283C24.082 35.8439 23.1102 36.2463 22.0836 36.4799C21.8688 36.5291 21.6961 36.6869 21.6281 36.8955L21.0258 38.7518H18.9727L18.3688 36.8955C18.3008 36.6861 18.1281 36.5283 17.9133 36.4799C16.8867 36.2463 15.9149 35.8439 15.025 35.283C14.8383 35.1658 14.6039 35.1549 14.4078 35.2549L12.6695 36.1408L11.2195 34.6877L12.1055 32.9494C12.2055 32.7533 12.1953 32.5189 12.0774 32.3322C11.5164 31.4424 11.1141 30.4705 10.8805 29.4439C10.8313 29.2291 10.6734 29.0564 10.4641 28.9885L8.60939 28.3846L8.60782 27.0643H14.5961C14.5906 27.1627 14.5875 27.2611 14.5875 27.3588C14.5875 30.3432 17.0156 32.7713 20 32.7713C22.9844 32.7713 25.4125 30.3432 25.4125 27.3588C25.4125 27.2611 25.4094 27.1627 25.4039 27.0643H31.3922V28.3853H31.3914ZM14.9742 17.0471C15.1461 17.2393 15.3242 17.4385 15.4992 17.6439C16.0766 18.3189 16.357 19.0799 16.357 19.9689V21.1518C16.357 21.2791 16.3656 21.4049 16.3797 21.5283C16.3805 21.5338 16.3813 21.54 16.382 21.5455C16.5766 23.1166 17.9188 24.3369 19.5414 24.3369H20.4578C22.0805 24.3369 23.4227 23.1166 23.6172 21.5455C23.618 21.54 23.6188 21.5338 23.6195 21.5283C23.6344 21.4049 23.6422 21.2791 23.6422 21.1518V19.9689C23.6422 19.7486 23.6594 19.5354 23.6945 19.3299C23.6945 19.3283 23.6945 19.3275 23.6953 19.326C23.8016 18.7064 24.0672 18.1518 24.5 17.6439C24.6742 17.44 24.8508 17.2424 25.0219 17.0518C26.1695 15.7689 27.2539 14.5572 27.2539 11.9057C27.2539 7.90488 23.9992 4.65098 19.9992 4.65098C15.9992 4.65098 12.7445 7.90566 12.7445 11.9057C12.7453 14.5541 13.8274 15.765 14.9742 17.0471ZM22.3961 19.8494C22.3953 19.8893 22.3938 19.9291 22.3938 19.9689V20.8439H17.6055V19.9689C17.6055 19.9283 17.6039 19.8893 17.6031 19.8494H22.3961ZM20.4586 23.0869H19.5422C18.8164 23.0869 18.1828 22.6854 17.8516 22.0924H22.1492C21.8172 22.6854 21.1844 23.0869 20.4586 23.0869ZM20 5.9002C23.3117 5.9002 26.0063 8.59473 26.0063 11.9064C26.0063 14.0799 25.1617 15.0244 24.0922 16.2197C23.9164 16.4166 23.7344 16.6197 23.5508 16.8346C23.0867 17.3791 22.7656 17.9643 22.5813 18.6018H20.6242V14.026L21.2985 13.3518C21.5422 13.108 21.5422 12.7127 21.2985 12.4689C21.0547 12.2252 20.6594 12.2252 20.4156 12.4689L20 12.883L19.5844 12.4674C19.3406 12.2236 18.9453 12.2236 18.7016 12.4674C18.4578 12.7111 18.4578 13.1064 18.7016 13.3502L19.3758 14.0244V18.6002H17.4195C17.2352 17.9619 16.9141 17.3768 16.4492 16.833C16.2649 16.6166 16.082 16.4127 15.9055 16.2143C14.8375 15.0197 13.9945 14.0768 13.9945 11.9049C13.9945 8.59395 16.6883 5.9002 20 5.9002ZM8.09454 11.9057C8.09454 11.5604 8.37423 11.2814 8.71876 11.2814H10.6055C10.9508 11.2814 11.2297 11.5611 11.2297 11.9057C11.2297 12.2502 10.95 12.5299 10.6055 12.5299H8.71876C8.37423 12.5307 8.09454 12.251 8.09454 11.9057ZM28.7695 11.9057C28.7695 11.5604 29.0492 11.2814 29.3938 11.2814H31.2805C31.6258 11.2814 31.9047 11.5611 31.9047 11.9057C31.9047 12.2502 31.625 12.5299 31.2805 12.5299H29.3938C29.0492 12.5307 28.7695 12.251 28.7695 11.9057ZM11.5813 20.3244C11.3375 20.0807 11.3375 19.6854 11.5813 19.4416L12.9164 18.1064C13.1602 17.8627 13.5555 17.8627 13.7992 18.1064C14.043 18.3502 14.043 18.7455 13.7992 18.9893L12.4641 20.3244C12.3422 20.4463 12.182 20.5072 12.0227 20.5072C11.8633 20.5072 11.7031 20.4463 11.5813 20.3244ZM26.2024 5.7041C25.9586 5.46035 25.9586 5.06504 26.2024 4.82129L27.5352 3.4877C27.7789 3.24395 28.1742 3.24395 28.418 3.4877C28.6617 3.73145 28.6617 4.12676 28.418 4.37051L27.0852 5.7041C26.9633 5.82598 26.8031 5.88691 26.6438 5.88691C26.4844 5.88691 26.3242 5.82598 26.2024 5.7041ZM19.3758 2.51191V0.625195C19.3758 0.279883 19.6555 0.000976562 20 0.000976562C20.3445 0.000976562 20.6242 0.280664 20.6242 0.625195V2.51191C20.6242 2.85723 20.3445 3.13613 20 3.13613C19.6555 3.13613 19.3758 2.85645 19.3758 2.51191ZM27.086 18.1064L28.4188 19.4416C28.6625 19.6854 28.6617 20.0814 28.418 20.3244C28.2961 20.4463 28.1367 20.5072 27.9766 20.5072C27.8164 20.5072 27.6563 20.4463 27.5344 20.3236L26.2016 18.9885C25.9578 18.7447 25.9586 18.3486 26.2024 18.1057C26.4469 17.8619 26.8422 17.8619 27.086 18.1064ZM11.582 4.37129C11.3375 4.12754 11.3375 3.73223 11.5813 3.48848C11.825 3.24395 12.2203 3.24395 12.4641 3.4877L13.7992 4.82129C14.0438 5.06504 14.0438 5.46035 13.8 5.7041C13.6781 5.82598 13.518 5.8877 13.3578 5.8877C13.1984 5.8877 13.0383 5.82676 12.9164 5.70488L11.582 4.37129Z" fill="url(#paint0_linear_194_4044)"/>
<defs>
<linearGradient id="paint0_linear_194_4044" x1="20.0008" y1="0.000976562" x2="20.0008" y2="40.0002" gradientUnits="userSpaceOnUse">
<stop stop-color="#FE4139"/>
<stop offset="1" stop-color="#FFBE36"/>
</linearGradient>
</defs>
</svg>
