<svg width="41" height="41" viewBox="0 0 41 41" fill="none" xmlns="http://www.w3.org/2000/svg">
<path d="M31.0918 0H3.75836C1.87235 0.00222084 0.343896 1.53067 0.341675 3.41668V25.2834C0.341504 26.8419 1.39589 28.2028 2.90487 28.5922L3.24654 27.2692C2.34086 27.0357 1.70801 26.2188 1.70835 25.2834V3.41668C1.70835 2.28448 2.62615 1.36667 3.75836 1.36667H31.0918C32.224 1.36667 33.1418 2.28448 33.1418 3.41668V4.10002H34.5085V3.41668C34.5063 1.53067 32.9778 0.00222084 31.0918 0Z" fill="url(#paint0_linear_194_3050)"/>
<path d="M4.44162 2.7334H3.07495V4.10007H4.44162V2.7334Z" fill="url(#paint1_linear_194_3050)"/>
<path d="M7.17502 2.7334H5.80835V4.10007H7.17502V2.7334Z" fill="url(#paint2_linear_194_3050)"/>
<path d="M9.90842 2.7334H8.54175V4.10007H9.90842V2.7334Z" fill="url(#paint3_linear_194_3050)"/>
<path d="M40.4583 37.7839L33.9769 31.3025C34.3173 30.6947 34.5896 30.0512 34.7887 29.3837H35.8752V28.017H35.0825C35.3399 26.3629 35.1414 24.6699 34.5085 23.1202V16.4003H33.1418V20.7518C32.736 20.2334 32.2781 19.758 31.7752 19.3332V13.6669H30.4085V18.3779C29.9711 18.1243 29.514 17.9061 29.0418 17.7253V10.9336H27.6751V17.3105C27.2248 17.2133 26.7681 17.1491 26.3085 17.1185V12.3003H24.9418V17.1185C24.4822 17.1491 24.0254 17.2133 23.5751 17.3105V15.0336H22.2084V17.7253C21.7363 17.9061 21.2793 18.1243 20.8418 18.3779V14.3503H19.4751V19.3332C18.9722 19.758 18.5142 20.2334 18.1084 20.7518V15.7169H16.7418V23.1202C16.1088 24.6699 15.9104 26.3629 16.1678 28.017H7.17505V29.3837H16.4616C17.9603 34.4388 23.2733 37.3218 28.3283 35.8231C29.3245 35.5277 30.2657 35.0718 31.115 34.4732L37.4421 40.8002C37.7089 41.0669 38.1415 41.0669 38.4083 40.8002L40.4583 38.7502C40.7251 38.4833 40.7251 38.0508 40.4583 37.7839ZM25.6251 34.8504C21.0984 34.8455 17.43 31.1771 17.4251 26.6503C17.4251 22.1216 21.0964 18.4503 25.6251 18.4503C30.1539 18.4503 33.8252 22.1216 33.8252 26.6503C33.8252 31.1791 30.1539 34.8504 25.6251 34.8504ZM37.9252 39.3508L32.177 33.6026C32.5494 33.2507 32.8933 32.8698 33.2054 32.4635L39.0089 38.267L37.9252 39.3508Z" fill="url(#paint4_linear_194_3050)"/>
<path d="M25.6251 19.8164C21.8511 19.8164 18.7917 22.8758 18.7917 26.6498C18.7917 30.4237 21.8511 33.4831 25.6251 33.4831C29.3991 33.4831 32.4585 30.4237 32.4585 26.6498C32.4544 22.8775 29.3974 19.8205 25.6251 19.8164ZM25.6251 32.1165C23.6745 32.114 21.8731 31.0723 20.8978 29.3831H30.3524C29.3771 31.0723 27.5757 32.114 25.6251 32.1165ZM20.3381 28.0164C19.7883 25.9357 20.5225 23.7268 22.2084 22.3892V26.6498H23.5751V21.5856C24.0133 21.4082 24.4727 21.2888 24.9418 21.2302V26.6498H26.3084V21.2302C26.7775 21.2888 27.2369 21.4082 27.6751 21.5856V26.6498H29.0418V22.3892C30.7278 23.7268 31.4619 25.9357 30.9121 28.0164H20.3381Z" fill="url(#paint5_linear_194_3050)"/>
<path d="M35.1918 5.4668H7.85833C5.97232 5.46902 4.44387 6.99747 4.44165 8.88348V30.7502C4.44387 32.6362 5.97232 34.1647 7.85833 34.1669H16.7417V32.8002H7.85833C6.72613 32.8002 5.80832 31.8824 5.80832 30.7502V8.88348C5.80832 7.75128 6.72613 6.83347 7.85833 6.83347H35.1918C36.324 6.83347 37.2418 7.75128 37.2418 8.88348V30.7502C37.2417 31.2495 37.0595 31.7315 36.7293 32.106L37.7543 33.01C38.3051 32.3861 38.6088 31.5825 38.6085 30.7502V8.88348C38.6062 6.99747 37.0778 5.46902 35.1918 5.4668Z" fill="url(#paint6_linear_194_3050)"/>
<path d="M8.54172 8.2002H7.17505V9.56687H8.54172V8.2002Z" fill="url(#paint7_linear_194_3050)"/>
<path d="M11.2751 8.2002H9.90845V9.56687H11.2751V8.2002Z" fill="url(#paint8_linear_194_3050)"/>
<path d="M14.0084 8.2002H12.6417V9.56687H14.0084V8.2002Z" fill="url(#paint9_linear_194_3050)"/>
<path d="M9.90842 22.5498H8.54175V26.6498H9.90842V22.5498Z" fill="url(#paint10_linear_194_3050)"/>
<path d="M12.6417 18.4502H11.275V26.6502H12.6417V18.4502Z" fill="url(#paint11_linear_194_3050)"/>
<path d="M15.3751 20.5H14.0084V26.65H15.3751V20.5Z" fill="url(#paint12_linear_194_3050)"/>
<defs>
<linearGradient id="paint0_linear_194_3050" x1="0.528379" y1="11.9135" x2="34.2287" y2="11.9208" gradientUnits="userSpaceOnUse">
<stop stop-color="#FE4139"/>
<stop offset="1" stop-color="#FFBE36"/>
</linearGradient>
<linearGradient id="paint1_linear_194_3050" x1="3.08242" y1="3.30285" x2="4.43043" y2="3.30309" gradientUnits="userSpaceOnUse">
<stop stop-color="#FE4139"/>
<stop offset="1" stop-color="#FFBE36"/>
</linearGradient>
<linearGradient id="paint2_linear_194_3050" x1="5.81582" y1="3.30285" x2="7.16383" y2="3.30309" gradientUnits="userSpaceOnUse">
<stop stop-color="#FE4139"/>
<stop offset="1" stop-color="#FFBE36"/>
</linearGradient>
<linearGradient id="paint3_linear_194_3050" x1="8.54922" y1="3.30285" x2="9.89723" y2="3.30309" gradientUnits="userSpaceOnUse">
<stop stop-color="#FE4139"/>
<stop offset="1" stop-color="#FFBE36"/>
</linearGradient>
<linearGradient id="paint4_linear_194_3050" x1="7.35802" y1="23.4614" x2="40.3842" y2="23.4681" gradientUnits="userSpaceOnUse">
<stop stop-color="#FE4139"/>
<stop offset="1" stop-color="#FFBE36"/>
</linearGradient>
<linearGradient id="paint5_linear_194_3050" x1="18.8664" y1="25.5109" x2="32.3466" y2="25.5134" gradientUnits="userSpaceOnUse">
<stop stop-color="#FE4139"/>
<stop offset="1" stop-color="#FFBE36"/>
</linearGradient>
<linearGradient id="paint6_linear_194_3050" x1="4.62835" y1="17.4252" x2="38.3287" y2="17.4325" gradientUnits="userSpaceOnUse">
<stop stop-color="#FE4139"/>
<stop offset="1" stop-color="#FFBE36"/>
</linearGradient>
<linearGradient id="paint7_linear_194_3050" x1="7.18252" y1="8.76965" x2="8.53053" y2="8.76989" gradientUnits="userSpaceOnUse">
<stop stop-color="#FE4139"/>
<stop offset="1" stop-color="#FFBE36"/>
</linearGradient>
<linearGradient id="paint8_linear_194_3050" x1="9.91592" y1="8.76965" x2="11.2639" y2="8.76989" gradientUnits="userSpaceOnUse">
<stop stop-color="#FE4139"/>
<stop offset="1" stop-color="#FFBE36"/>
</linearGradient>
<linearGradient id="paint9_linear_194_3050" x1="12.6492" y1="8.76965" x2="13.9972" y2="8.76989" gradientUnits="userSpaceOnUse">
<stop stop-color="#FE4139"/>
<stop offset="1" stop-color="#FFBE36"/>
</linearGradient>
<linearGradient id="paint10_linear_194_3050" x1="8.54922" y1="24.2582" x2="9.89723" y2="24.2582" gradientUnits="userSpaceOnUse">
<stop stop-color="#FE4139"/>
<stop offset="1" stop-color="#FFBE36"/>
</linearGradient>
<linearGradient id="paint11_linear_194_3050" x1="11.2825" y1="21.8669" x2="12.6305" y2="21.8669" gradientUnits="userSpaceOnUse">
<stop stop-color="#FE4139"/>
<stop offset="1" stop-color="#FFBE36"/>
</linearGradient>
<linearGradient id="paint12_linear_194_3050" x1="14.0159" y1="23.0625" x2="15.3639" y2="23.0626" gradientUnits="userSpaceOnUse">
<stop stop-color="#FE4139"/>
<stop offset="1" stop-color="#FFBE36"/>
</linearGradient>
</defs>
</svg>
