<svg width="42" height="42" viewBox="0 0 42 42" fill="none" xmlns="http://www.w3.org/2000/svg">
<path d="M28.7743 6.31838C28.9264 6.46661 28.9956 6.67997 28.9598 6.88931L28.7924 7.86499C28.6709 8.57382 28.9568 9.27667 29.5386 9.69929C30.1205 10.1221 30.8775 10.1766 31.5138 9.84211L32.3899 9.38142C32.5778 9.28257 32.8021 9.28249 32.9902 9.38142L33.8665 9.84211C34.5005 10.1757 35.2583 10.1232 35.8416 9.69929C36.4234 9.27667 36.7093 8.57366 36.5877 7.86499L36.4205 6.88931C36.3845 6.67997 36.4538 6.46661 36.606 6.31829L37.3148 5.62743C38.4279 4.57111 37.7964 2.62836 36.2753 2.42829L35.2959 2.28605C35.0857 2.25545 34.9042 2.12363 34.8102 1.93307L34.3721 1.04549C34.0536 0.400641 33.4092 0 32.6899 0C31.9708 8.20313e-05 31.3264 0.400723 31.0082 1.04549L30.5701 1.93307C30.4761 2.12346 30.2945 2.25553 30.0844 2.28605L29.1048 2.42829C28.3931 2.53173 27.813 3.0208 27.5908 3.7047C27.3686 4.38867 27.5504 5.12539 28.0653 5.62743L28.7743 6.31838ZM28.761 4.08499C28.8386 3.8462 29.0333 3.68214 29.2818 3.64596L30.2615 3.50372C30.8724 3.41488 31.4003 3.0313 31.6736 2.47767L32.1117 1.59009C32.3286 1.11431 33.0517 1.11448 33.2686 1.59009L33.7067 2.47759C33.9798 3.03122 34.5077 3.41488 35.1189 3.50372L36.0984 3.64596C36.3468 3.68205 36.5415 3.8462 36.6191 4.08507C36.6967 4.32387 36.6357 4.57111 36.4559 4.74641L35.7471 5.43728C35.3049 5.86827 35.1033 6.48875 35.2077 7.09734L35.375 8.07302C35.4175 8.32051 35.3216 8.55635 35.1184 8.70393C34.9153 8.85142 34.6613 8.86971 34.4391 8.75306L33.5628 8.29237C33.0164 8.0051 32.3638 8.00518 31.8174 8.29237L30.9412 8.75306C30.719 8.86979 30.465 8.85142 30.2619 8.70393C30.0587 8.55627 29.9628 8.32043 30.0052 8.07302L30.1726 7.09743C30.277 6.48892 30.0753 5.86827 29.6333 5.43728L28.9244 4.74641C28.7445 4.57111 28.6834 4.32379 28.761 4.08499Z" fill="url(#paint0_linear_194_3099)"/>
<path d="M4.16964 16.3242H15.1635C15.8137 16.3242 16.3426 15.7954 16.3426 15.1452V5.77279C16.3426 5.12261 15.8137 4.59375 15.1635 4.59375H10.0605C9.24581 4.62197 9.24647 5.79633 10.0605 5.82422H15.1121V15.0938H4.22107V5.82422H7.11571C7.93036 5.796 7.9297 4.62164 7.11571 4.59375H4.16964C3.51946 4.59375 2.9906 5.12261 2.9906 5.77279V15.1452C2.9906 15.7954 3.51954 16.3242 4.16964 16.3242Z" fill="url(#paint1_linear_194_3099)"/>
<path d="M10.7116 8.95508H13.2062C14.0208 8.92686 14.0202 7.7525 13.2062 7.72461H10.7116C9.89703 7.75275 9.89761 8.92719 10.7116 8.95508Z" fill="url(#paint2_linear_194_3099)"/>
<path d="M10.7116 11.0596H13.2062C14.0208 11.0314 14.0202 9.85699 13.2062 9.8291H10.7116C9.89703 9.85732 9.89761 11.0317 10.7116 11.0596Z" fill="url(#paint3_linear_194_3099)"/>
<path d="M6.86773 8.15078V8.78283H6.23568C5.42103 8.81105 5.42169 9.98541 6.23568 10.0133H6.86773V10.6454C6.89595 11.46 8.07031 11.4593 8.0982 10.6454V10.0133H8.73033C9.54499 9.98508 9.54433 8.81072 8.73033 8.78283H8.0982V8.15078C8.06998 7.33613 6.89562 7.33679 6.86773 8.15078Z" fill="url(#paint4_linear_194_3099)"/>
<path d="M5.62042 12.5781C5.62042 12.918 5.8958 13.1934 6.23566 13.1934H13.2063C14.0209 13.1651 14.0203 11.9908 13.2063 11.9629H6.23566C5.8958 11.9629 5.62042 12.2384 5.62042 12.5781Z" fill="url(#paint5_linear_194_3099)"/>
<path d="M40.0597 38.1449H33.3463V35.1413C33.318 34.3267 32.1437 34.3273 32.1158 35.1413V38.1449H27.44V25.5469H32.1158V32.2387C32.144 33.0533 33.3184 33.0527 33.3463 32.2387V25.4796C33.3463 24.8383 32.8245 24.3164 32.1831 24.3164H27.3727C26.7314 24.3164 26.2095 24.8382 26.2095 25.4796V38.1449H24.5558V30.7296C24.5558 30.0883 24.034 29.5664 23.3926 29.5664H18.5823C17.941 29.5664 17.4191 30.0882 17.4191 30.7296V38.1449H15.7653V35.5695C15.7653 34.9281 15.2435 34.4062 14.6021 34.4062H9.79164C9.15032 34.4062 8.62852 34.9281 8.62852 35.5695V38.1449H1.91516C-0.639372 38.2421 -0.637403 41.9041 1.91516 42.0004H40.0597C42.6142 41.9032 42.6123 38.2412 40.0597 38.1449ZM18.6495 30.7969H23.3253V38.1449H18.6495V30.7969ZM9.85907 35.6367H14.5349V38.1449H9.85907V35.6367ZM40.0597 40.7699H1.91516C0.991163 40.7347 0.991902 39.4102 1.91516 39.3754H40.0597C40.9837 39.4106 40.983 40.735 40.0597 40.7699Z" fill="url(#paint6_linear_194_3099)"/>
<path d="M5.93731 27.3277C5.60319 27.2675 5.28294 27.4882 5.22175 27.8223C5.16064 28.1565 5.38204 28.477 5.71632 28.5382C17.119 30.2099 28.7562 25.5222 32.0626 13.0898L33.3414 15.9415C33.4807 16.2548 33.8518 16.3891 34.1545 16.2512C34.4646 16.1121 34.6032 15.7481 34.4642 15.4381L32.5284 11.1213C32.4537 10.9546 32.3088 10.8298 32.133 10.7806C31.9575 10.7314 31.7687 10.7627 31.6183 10.8661L27.721 13.5482C27.4411 13.7409 27.3704 14.124 27.563 14.4039C27.7557 14.6837 28.1387 14.7545 28.4186 14.562L30.8354 12.8986C28.7095 20.249 23.9928 24.9181 16.7991 26.7801C11.1419 28.2445 5.98874 27.337 5.93731 27.3277Z" fill="url(#paint7_linear_194_3099)"/>
<defs>
<linearGradient id="paint0_linear_194_3099" x1="27.5543" y1="4.19149" x2="37.7941" y2="4.19341" gradientUnits="userSpaceOnUse">
<stop stop-color="#FE4139"/>
<stop offset="1" stop-color="#FFBE36"/>
</linearGradient>
<linearGradient id="paint1_linear_194_3099" x1="3.06356" y1="9.48147" x2="16.2332" y2="9.4842" gradientUnits="userSpaceOnUse">
<stop stop-color="#FE4139"/>
<stop offset="1" stop-color="#FFBE36"/>
</linearGradient>
<linearGradient id="paint2_linear_194_3099" x1="10.1212" y1="8.23731" x2="13.7865" y2="8.23932" gradientUnits="userSpaceOnUse">
<stop stop-color="#FE4139"/>
<stop offset="1" stop-color="#FFBE36"/>
</linearGradient>
<linearGradient id="paint3_linear_194_3099" x1="10.1212" y1="10.3418" x2="13.7865" y2="10.3438" gradientUnits="userSpaceOnUse">
<stop stop-color="#FE4139"/>
<stop offset="1" stop-color="#FFBE36"/>
</linearGradient>
<linearGradient id="paint4_linear_194_3099" x1="5.64525" y1="9.08841" x2="9.31065" y2="9.08907" gradientUnits="userSpaceOnUse">
<stop stop-color="#FE4139"/>
<stop offset="1" stop-color="#FFBE36"/>
</linearGradient>
<linearGradient id="paint5_linear_194_3099" x1="5.66521" y1="12.4756" x2="13.7499" y2="12.4854" gradientUnits="userSpaceOnUse">
<stop stop-color="#FE4139"/>
<stop offset="1" stop-color="#FFBE36"/>
</linearGradient>
<linearGradient id="paint6_linear_194_3099" x1="0.229371" y1="31.6848" x2="41.6311" y2="31.7026" gradientUnits="userSpaceOnUse">
<stop stop-color="#FE4139"/>
<stop offset="1" stop-color="#FFBE36"/>
</linearGradient>
<linearGradient id="paint7_linear_194_3099" x1="5.37175" y1="18.3024" x2="34.2782" y2="18.3109" gradientUnits="userSpaceOnUse">
<stop stop-color="#FE4139"/>
<stop offset="1" stop-color="#FFBE36"/>
</linearGradient>
</defs>
</svg>
