<svg width="55" height="55" viewBox="0 0 55 55" fill="none" xmlns="http://www.w3.org/2000/svg">
<path d="M10.8036 27.5356C11.064 27.5356 11.3139 27.4321 11.498 27.2479C11.6822 27.0637 11.7857 26.8139 11.7857 26.5534C11.7857 26.293 11.6822 26.0431 11.498 25.859C11.3139 25.6748 11.064 25.5713 10.8036 25.5713H6.875C6.61452 25.5713 6.3647 25.6748 6.18052 25.859C5.99633 26.0431 5.89285 26.293 5.89285 26.5534V32.4463C5.89285 32.7068 5.99633 32.9566 6.18052 33.1408C6.3647 33.325 6.61452 33.4284 6.875 33.4284H10.8036C11.064 33.4284 11.3139 33.325 11.498 33.1408C11.6822 32.9566 11.7857 32.7068 11.7857 32.4463C11.7857 32.1858 11.6822 31.936 11.498 31.7518C11.3139 31.5676 11.064 31.4641 10.8036 31.4641H7.85714V27.5356H10.8036Z" fill="url(#paint0_linear_194_2903)"/>
<path d="M44.1964 31.4641C43.936 31.4641 43.6861 31.5676 43.502 31.7518C43.3178 31.936 43.2143 32.1858 43.2143 32.4463C43.2143 32.7068 43.3178 32.9566 43.502 33.1408C43.6861 33.325 43.936 33.4284 44.1964 33.4284H48.125C48.3855 33.4284 48.6353 33.325 48.8195 33.1408C49.0037 32.9566 49.1072 32.7068 49.1072 32.4463V26.5534C49.1072 26.293 49.0037 26.0431 48.8195 25.859C48.6353 25.6748 48.3855 25.5713 48.125 25.5713H44.1964C43.936 25.5713 43.6861 25.6748 43.502 25.859C43.3178 26.0431 43.2143 26.293 43.2143 26.5534C43.2143 26.8139 43.3178 27.0637 43.502 27.2479C43.6861 27.4321 43.936 27.5356 44.1964 27.5356H47.1429V31.4641H44.1964Z" fill="url(#paint1_linear_194_2903)"/>
<path d="M21.6071 24.5893H33.3929C33.6533 24.5893 33.9032 24.4858 34.0873 24.3016C34.2715 24.1174 34.375 23.8676 34.375 23.6071C34.375 23.3467 34.2715 23.0968 34.0873 22.9127C33.9032 22.7285 33.6533 22.625 33.3929 22.625H21.6071C21.3467 22.625 21.0968 22.7285 20.9127 22.9127C20.7285 23.0968 20.625 23.3467 20.625 23.6071C20.625 23.8676 20.7285 24.1174 20.9127 24.3016C21.0968 24.4858 21.3467 24.5893 21.6071 24.5893Z" fill="url(#paint2_linear_194_2903)"/>
<path d="M24.5536 31.4646C24.5536 31.2041 24.4501 30.9543 24.2659 30.7701C24.0817 30.5859 23.8319 30.4824 23.5714 30.4824H19.6428C19.3824 30.4824 19.1326 30.5859 18.9484 30.7701C18.7642 30.9543 18.6607 31.2041 18.6607 31.4646C18.6607 31.725 18.7642 31.9749 18.9484 32.159C19.1326 32.3432 19.3824 32.4467 19.6428 32.4467H23.5714C23.8319 32.4467 24.0817 32.3432 24.2659 32.159C24.4501 31.9749 24.5536 31.725 24.5536 31.4646Z" fill="url(#paint3_linear_194_2903)"/>
<path d="M27.5 34.4111H21.6071C21.3467 34.4111 21.0968 34.5146 20.9127 34.6988C20.7285 34.883 20.625 35.1328 20.625 35.3933C20.625 35.6538 20.7285 35.9036 20.9127 36.0878C21.0968 36.2719 21.3467 36.3754 21.6071 36.3754H27.5C27.7605 36.3754 28.0103 36.2719 28.1945 36.0878C28.3787 35.9036 28.4821 35.6538 28.4821 35.3933C28.4821 35.1328 28.3787 34.883 28.1945 34.6988C28.0103 34.5146 27.7605 34.4111 27.5 34.4111Z" fill="url(#paint4_linear_194_2903)"/>
<path d="M33.3929 34.4111H31.4286C31.1681 34.4111 30.9183 34.5146 30.7341 34.6988C30.5499 34.883 30.4464 35.1328 30.4464 35.3933C30.4464 35.6538 30.5499 35.9036 30.7341 36.0878C30.9183 36.2719 31.1681 36.3754 31.4286 36.3754H33.3929C33.6534 36.3754 33.9032 36.2719 34.0874 36.0878C34.2715 35.9036 34.375 35.6538 34.375 35.3933C34.375 35.1328 34.2715 34.883 34.0874 34.6988C33.9032 34.5146 33.6534 34.4111 33.3929 34.4111Z" fill="url(#paint5_linear_194_2903)"/>
<path d="M36.3393 31.4646C36.3393 31.2041 36.2358 30.9543 36.0516 30.7701C35.8674 30.5859 35.6176 30.4824 35.3571 30.4824H27.5C27.2395 30.4824 26.9897 30.5859 26.8055 30.7701C26.6213 30.9543 26.5179 31.2041 26.5179 31.4646C26.5179 31.725 26.6213 31.9749 26.8055 32.159C26.9897 32.3432 27.2395 32.4467 27.5 32.4467H35.3571C35.6176 32.4467 35.8674 32.3432 36.0516 32.159C36.2358 31.9749 36.3393 31.725 36.3393 31.4646Z" fill="url(#paint6_linear_194_2903)"/>
<path d="M30.4464 27.5359C30.4464 27.7963 30.5499 28.0461 30.7341 28.2303C30.9183 28.4145 31.1681 28.518 31.4286 28.518H35.3572C35.6176 28.518 35.8674 28.4145 36.0516 28.2303C36.2358 28.0461 36.3393 27.7963 36.3393 27.5359C36.3393 27.2754 36.2358 27.0256 36.0516 26.8414C35.8674 26.6572 35.6176 26.5537 35.3572 26.5537H31.4286C31.1681 26.5537 30.9183 26.6572 30.7341 26.8414C30.5499 27.0256 30.4464 27.2754 30.4464 27.5359Z" fill="url(#paint7_linear_194_2903)"/>
<path d="M19.6428 28.518H27.5C27.7605 28.518 28.0103 28.4145 28.1945 28.2303C28.3787 28.0461 28.4821 27.7963 28.4821 27.5359C28.4821 27.2754 28.3787 27.0256 28.1945 26.8414C28.0103 26.6572 27.7605 26.5537 27.5 26.5537H19.6428C19.3824 26.5537 19.1326 26.6572 18.9484 26.8414C18.7642 27.0256 18.6607 27.2754 18.6607 27.5359C18.6607 27.7963 18.7642 28.0461 18.9484 28.2303C19.1326 28.4145 19.3824 28.518 19.6428 28.518Z" fill="url(#paint8_linear_194_2903)"/>
<path d="M40.9652 38.6243C40.8152 38.4795 40.6229 38.3862 40.4163 38.358C40.2097 38.3297 39.9995 38.368 39.8161 38.4671L38.7456 37.3573C40.7161 34.5394 41.5593 31.0855 41.1089 27.6765C40.6586 24.2676 38.9473 21.1512 36.3125 18.9417C33.6777 16.7323 30.3108 15.5902 26.8755 15.7407C23.4403 15.8912 20.1861 17.3234 17.7547 19.7548C15.3233 22.1862 13.8911 25.4404 13.7406 28.8757C13.5901 32.3109 14.7321 35.6779 16.9416 38.3127C19.151 40.9474 22.2675 42.6587 25.6764 43.1091C29.0853 43.5595 32.5393 42.7163 35.3572 40.7457L36.4375 41.8163C36.3384 41.9997 36.3001 42.2099 36.3284 42.4165C36.3566 42.6231 36.4499 42.8153 36.5947 42.9654L45.8072 52.1779C46.236 52.6133 46.7849 52.911 47.3837 53.033C47.9826 53.155 48.6042 53.0957 49.1692 52.8628C49.7342 52.6298 50.2169 52.2337 50.5558 51.7251C50.8946 51.2165 51.0741 50.6185 51.0715 50.0073C51.0741 49.6043 50.9964 49.2048 50.8429 48.8321C50.6895 48.4595 50.4633 48.1211 50.1777 47.8368L40.9652 38.6243ZM15.7143 29.5002C15.7143 27.1692 16.4055 24.8905 17.7006 22.9524C18.9956 21.0142 20.8363 19.5036 22.9898 18.6116C25.1434 17.7196 27.5131 17.4862 29.7993 17.9409C32.0855 18.3957 34.1855 19.5182 35.8338 21.1664C37.4821 22.8147 38.6045 24.9147 39.0593 27.2009C39.514 29.4871 39.2806 31.8568 38.3886 34.0104C37.4966 36.1639 35.986 38.0046 34.0478 39.2996C32.1097 40.5947 29.831 41.2859 27.5 41.2859C24.3743 41.2859 21.3765 40.0442 19.1663 37.8339C16.956 35.6237 15.7143 32.6259 15.7143 29.5002ZM37.4884 38.9189L38.392 39.8127L37.8125 40.3921L36.9188 39.4886L37.4884 38.9189ZM48.0072 51.1073C47.8628 51.1079 47.7197 51.0795 47.5864 51.0239C47.4531 50.9682 47.3324 50.8864 47.2313 50.7832L38.7063 42.268L40.2679 40.7064L48.7831 49.2314C48.9361 49.3853 49.0403 49.5809 49.0824 49.7938C49.1245 50.0067 49.1028 50.2272 49.0198 50.4278C48.9369 50.6283 48.7965 50.7998 48.6163 50.9207C48.4361 51.0416 48.2242 51.1066 48.0072 51.1073Z" fill="url(#paint9_linear_194_2903)"/>
<path d="M54.0179 2H0.982143C0.721662 2 0.471851 2.10348 0.287663 2.28766C0.103476 2.47185 0 2.72166 0 2.98214V48.1607C0 48.4212 0.103476 48.671 0.287663 48.8552C0.471851 49.0394 0.721662 49.1429 0.982143 49.1429H37.3214C37.5819 49.1429 37.8317 49.0394 38.0159 48.8552C38.2001 48.671 38.3036 48.4212 38.3036 48.1607C38.3036 47.9002 38.2001 47.6504 38.0159 47.4662C37.8317 47.282 37.5819 47.1786 37.3214 47.1786H1.96429V11.8214H53.0357V48.1607C53.0357 48.4212 53.1392 48.671 53.3234 48.8552C53.5076 49.0394 53.7574 49.1429 54.0179 49.1429C54.2783 49.1429 54.5282 49.0394 54.7123 48.8552C54.8965 48.671 55 48.4212 55 48.1607V2.98214C55 2.72166 54.8965 2.47185 54.7123 2.28766C54.5282 2.10348 54.2783 2 54.0179 2ZM1.96429 3.96429H15.7143V9.85714H1.96429V3.96429ZM17.6786 9.85714V3.96429H53.0357V9.85714H17.6786Z" fill="url(#paint10_linear_194_2903)"/>
<path d="M4.9107 5.92871C4.71645 5.92871 4.52656 5.98631 4.36505 6.09423C4.20354 6.20215 4.07766 6.35554 4.00332 6.535C3.92898 6.71447 3.90953 6.91194 3.94743 7.10246C3.98533 7.29298 4.07887 7.46798 4.21622 7.60533C4.35358 7.74269 4.52858 7.83623 4.7191 7.87413C4.90961 7.91202 5.10709 7.89257 5.28655 7.81824C5.46601 7.7439 5.6194 7.61802 5.72732 7.4565C5.83524 7.29499 5.89284 7.1051 5.89284 6.91085C5.89284 6.65037 5.78937 6.40056 5.60518 6.21637C5.42099 6.03219 5.17118 5.92871 4.9107 5.92871Z" fill="url(#paint11_linear_194_2903)"/>
<path d="M8.83929 5.92871C8.64504 5.92871 8.45515 5.98631 8.29364 6.09423C8.13213 6.20215 8.00624 6.35554 7.93191 6.535C7.85757 6.71447 7.83812 6.91194 7.87602 7.10246C7.91392 7.29298 8.00746 7.46798 8.14481 7.60533C8.28217 7.74269 8.45717 7.83623 8.64768 7.87413C8.8382 7.91202 9.03568 7.89257 9.21514 7.81824C9.3946 7.7439 9.54799 7.61802 9.65591 7.4565C9.76383 7.29499 9.82143 7.1051 9.82143 6.91085C9.82143 6.65037 9.71796 6.40056 9.53377 6.21637C9.34958 6.03219 9.09977 5.92871 8.83929 5.92871Z" fill="url(#paint12_linear_194_2903)"/>
<path d="M12.7678 5.92871C12.5736 5.92871 12.3837 5.98631 12.2222 6.09423C12.0607 6.20215 11.9348 6.35554 11.8605 6.535C11.7861 6.71447 11.7667 6.91194 11.8046 7.10246C11.8425 7.29298 11.936 7.46798 12.0734 7.60533C12.2107 7.74269 12.3857 7.83623 12.5762 7.87413C12.7668 7.91202 12.9642 7.89257 13.1437 7.81824C13.3232 7.7439 13.4766 7.61802 13.5845 7.4565C13.6924 7.29499 13.75 7.1051 13.75 6.91085C13.75 6.65037 13.6465 6.40056 13.4623 6.21637C13.2781 6.03219 13.0283 5.92871 12.7678 5.92871Z" fill="url(#paint13_linear_194_2903)"/>
<path d="M50.0893 5.92871H20.625C20.3645 5.92871 20.1147 6.03219 19.9305 6.21637C19.7463 6.40056 19.6429 6.65037 19.6429 6.91085C19.6429 7.17133 19.7463 7.42115 19.9305 7.60533C20.1147 7.78952 20.3645 7.893 20.625 7.893H50.0893C50.3498 7.893 50.5996 7.78952 50.7838 7.60533C50.9679 7.42115 51.0714 7.17133 51.0714 6.91085C51.0714 6.65037 50.9679 6.40056 50.7838 6.21637C50.5996 6.03219 50.3498 5.92871 50.0893 5.92871Z" fill="url(#paint14_linear_194_2903)"/>
<defs>
<linearGradient id="paint0_linear_194_2903" x1="8.83928" y1="25.5713" x2="8.83928" y2="33.4284" gradientUnits="userSpaceOnUse">
<stop stop-color="#FE4139"/>
<stop offset="1" stop-color="#FFBE36"/>
</linearGradient>
<linearGradient id="paint1_linear_194_2903" x1="46.1607" y1="25.5713" x2="46.1607" y2="33.4284" gradientUnits="userSpaceOnUse">
<stop stop-color="#FE4139"/>
<stop offset="1" stop-color="#FFBE36"/>
</linearGradient>
<linearGradient id="paint2_linear_194_2903" x1="27.5" y1="22.625" x2="27.5" y2="24.5893" gradientUnits="userSpaceOnUse">
<stop stop-color="#FE4139"/>
<stop offset="1" stop-color="#FFBE36"/>
</linearGradient>
<linearGradient id="paint3_linear_194_2903" x1="21.6071" y1="30.4824" x2="21.6071" y2="32.4467" gradientUnits="userSpaceOnUse">
<stop stop-color="#FE4139"/>
<stop offset="1" stop-color="#FFBE36"/>
</linearGradient>
<linearGradient id="paint4_linear_194_2903" x1="24.5536" y1="34.4111" x2="24.5536" y2="36.3754" gradientUnits="userSpaceOnUse">
<stop stop-color="#FE4139"/>
<stop offset="1" stop-color="#FFBE36"/>
</linearGradient>
<linearGradient id="paint5_linear_194_2903" x1="32.4107" y1="34.4111" x2="32.4107" y2="36.3754" gradientUnits="userSpaceOnUse">
<stop stop-color="#FE4139"/>
<stop offset="1" stop-color="#FFBE36"/>
</linearGradient>
<linearGradient id="paint6_linear_194_2903" x1="31.4286" y1="30.4824" x2="31.4286" y2="32.4467" gradientUnits="userSpaceOnUse">
<stop stop-color="#FE4139"/>
<stop offset="1" stop-color="#FFBE36"/>
</linearGradient>
<linearGradient id="paint7_linear_194_2903" x1="33.3929" y1="26.5537" x2="33.3929" y2="28.518" gradientUnits="userSpaceOnUse">
<stop stop-color="#FE4139"/>
<stop offset="1" stop-color="#FFBE36"/>
</linearGradient>
<linearGradient id="paint8_linear_194_2903" x1="23.5714" y1="26.5537" x2="23.5714" y2="28.518" gradientUnits="userSpaceOnUse">
<stop stop-color="#FE4139"/>
<stop offset="1" stop-color="#FFBE36"/>
</linearGradient>
<linearGradient id="paint9_linear_194_2903" x1="32.3995" y1="15.7275" x2="32.3995" y2="53.0949" gradientUnits="userSpaceOnUse">
<stop stop-color="#FE4139"/>
<stop offset="1" stop-color="#FFBE36"/>
</linearGradient>
<linearGradient id="paint10_linear_194_2903" x1="27.5" y1="2" x2="27.5" y2="49.1429" gradientUnits="userSpaceOnUse">
<stop stop-color="#FE4139"/>
<stop offset="1" stop-color="#FFBE36"/>
</linearGradient>
<linearGradient id="paint11_linear_194_2903" x1="4.9107" y1="5.92871" x2="4.9107" y2="7.893" gradientUnits="userSpaceOnUse">
<stop stop-color="#FE4139"/>
<stop offset="1" stop-color="#FFBE36"/>
</linearGradient>
<linearGradient id="paint12_linear_194_2903" x1="8.83929" y1="5.92871" x2="8.83929" y2="7.893" gradientUnits="userSpaceOnUse">
<stop stop-color="#FE4139"/>
<stop offset="1" stop-color="#FFBE36"/>
</linearGradient>
<linearGradient id="paint13_linear_194_2903" x1="12.7678" y1="5.92871" x2="12.7678" y2="7.893" gradientUnits="userSpaceOnUse">
<stop stop-color="#FE4139"/>
<stop offset="1" stop-color="#FFBE36"/>
</linearGradient>
<linearGradient id="paint14_linear_194_2903" x1="35.3571" y1="5.92871" x2="35.3571" y2="7.893" gradientUnits="userSpaceOnUse">
<stop stop-color="#FE4139"/>
<stop offset="1" stop-color="#FFBE36"/>
</linearGradient>
</defs>
</svg>
