<svg width="40" height="40" viewBox="0 0 40 40" fill="none" xmlns="http://www.w3.org/2000/svg">
<path d="M35 5.29785H5C4.1712 5.29785 3.37634 5.62709 2.79029 6.21314C2.20424 6.79919 1.875 7.59405 1.875 8.42285V28.4229C1.875 29.2517 2.20424 30.0465 2.79029 30.6326C3.37634 31.2186 4.1712 31.5479 5 31.5479H7.5C7.66576 31.5479 7.82473 31.482 7.94194 31.3648C8.05915 31.2476 8.125 31.0886 8.125 30.9229C8.125 30.7571 8.05915 30.5981 7.94194 30.4809C7.82473 30.3637 7.66576 30.2979 7.5 30.2979H5C4.50272 30.2979 4.02581 30.1003 3.67417 29.7487C3.32254 29.397 3.125 28.9201 3.125 28.4229V11.5479H36.875V28.4229C36.875 28.9201 36.6775 29.397 36.3258 29.7487C35.9742 30.1003 35.4973 30.2979 35 30.2979H32.5C32.3342 30.2979 32.1753 30.3637 32.0581 30.4809C31.9408 30.5981 31.875 30.7571 31.875 30.9229C31.875 31.0886 31.9408 31.2476 32.0581 31.3648C32.1753 31.482 32.3342 31.5479 32.5 31.5479H35C35.8288 31.5479 36.6237 31.2186 37.2097 30.6326C37.7958 30.0465 38.125 29.2517 38.125 28.4229V8.42285C38.125 7.59405 37.7958 6.79919 37.2097 6.21314C36.6237 5.62709 35.8288 5.29785 35 5.29785ZM3.125 10.2979V8.42285C3.125 7.92557 3.32254 7.44866 3.67417 7.09703C4.02581 6.7454 4.50272 6.54785 5 6.54785H35C35.4973 6.54785 35.9742 6.7454 36.3258 7.09703C36.6775 7.44866 36.875 7.92557 36.875 8.42285V10.2979H3.125Z" fill="url(#paint0_linear_194_4054)"/>
<path d="M6.25 9.67285C6.94036 9.67285 7.5 9.11321 7.5 8.42285C7.5 7.7325 6.94036 7.17285 6.25 7.17285C5.55964 7.17285 5 7.7325 5 8.42285C5 9.11321 5.55964 9.67285 6.25 9.67285Z" fill="url(#paint1_linear_194_4054)"/>
<path d="M11.25 9.67285C11.9404 9.67285 12.5 9.11321 12.5 8.42285C12.5 7.7325 11.9404 7.17285 11.25 7.17285C10.5596 7.17285 10 7.7325 10 8.42285C10 9.11321 10.5596 9.67285 11.25 9.67285Z" fill="url(#paint2_linear_194_4054)"/>
<path d="M16.25 9.67285C16.9404 9.67285 17.5 9.11321 17.5 8.42285C17.5 7.7325 16.9404 7.17285 16.25 7.17285C15.5596 7.17285 15 7.7325 15 8.42285C15 9.11321 15.5596 9.67285 16.25 9.67285Z" fill="url(#paint3_linear_194_4054)"/>
<path d="M8.31251 35.1101C8.36862 35.1699 8.43639 35.2175 8.51164 35.2501C8.58689 35.2827 8.66801 35.2995 8.75001 35.2995C8.832 35.2995 8.91313 35.2827 8.98837 35.2501C9.06362 35.2175 9.13139 35.1699 9.18751 35.1101L14.7625 29.5351C16.602 31.1474 18.9962 31.9815 21.4393 31.861C23.8824 31.7406 26.183 30.675 27.8549 28.8895C29.5268 27.104 30.439 24.7384 30.3988 22.2927C30.3587 19.8469 29.3692 17.5126 27.6396 15.783C25.91 14.0533 23.5756 13.0639 21.1299 13.0237C18.6842 12.9836 16.3186 13.8958 14.5331 15.5677C12.7476 17.2396 11.682 19.5402 11.5615 21.9833C11.4411 24.4264 12.2751 26.8206 13.8875 28.6601L8.31251 34.2351C8.25272 34.2912 8.20507 34.359 8.17249 34.4342C8.13991 34.5094 8.12311 34.5906 8.12311 34.6726C8.12311 34.7546 8.13991 34.8357 8.17249 34.9109C8.20507 34.9862 8.25272 35.054 8.31251 35.1101ZM20.925 14.3726C22.532 14.3726 24.1029 14.8491 25.439 15.7419C26.7752 16.6347 27.8166 17.9036 28.4315 19.3883C29.0465 20.8729 29.2074 22.5066 28.8939 24.0827C28.5804 25.6588 27.8066 27.1065 26.6702 28.2428C25.5339 29.3791 24.0862 30.1529 22.5101 30.4664C20.934 30.78 19.3004 30.6191 17.8157 30.0041C16.3311 29.3891 15.0621 28.3477 14.1693 27.0116C13.2765 25.6754 12.8 24.1045 12.8 22.4976C12.8 20.3427 13.656 18.2761 15.1798 16.7523C16.7035 15.2286 18.7701 14.3726 20.925 14.3726Z" fill="url(#paint4_linear_194_4054)"/>
<path d="M17.175 23.123H20.3V26.248C20.3032 26.4128 20.3701 26.5699 20.4866 26.6864C20.6031 26.803 20.7602 26.8698 20.925 26.873C21.0907 26.873 21.2497 26.8072 21.3669 26.69C21.4841 26.5728 21.55 26.4138 21.55 26.248V23.123H24.675C24.8407 23.123 24.9997 23.0572 25.1169 22.94C25.2341 22.8228 25.3 22.6638 25.3 22.498C25.3 22.3323 25.2341 22.1733 25.1169 22.0561C24.9997 21.9389 24.8407 21.873 24.675 21.873H21.55V18.748C21.55 18.5823 21.4841 18.4233 21.3669 18.3061C21.2497 18.1889 21.0907 18.123 20.925 18.123C20.7592 18.123 20.6003 18.1889 20.483 18.3061C20.3658 18.4233 20.3 18.5823 20.3 18.748V21.873H17.175C17.0092 21.873 16.8503 21.9389 16.733 22.0561C16.6158 22.1733 16.55 22.3323 16.55 22.498C16.5532 22.6628 16.6201 22.8199 16.7366 22.9364C16.8531 23.053 17.0102 23.1198 17.175 23.123Z" fill="url(#paint5_linear_194_4054)"/>
<defs>
<linearGradient id="paint0_linear_194_4054" x1="20" y1="5.29785" x2="20" y2="31.5479" gradientUnits="userSpaceOnUse">
<stop stop-color="#FE4139"/>
<stop offset="1" stop-color="#FFBE36"/>
</linearGradient>
<linearGradient id="paint1_linear_194_4054" x1="6.25" y1="7.17285" x2="6.25" y2="9.67285" gradientUnits="userSpaceOnUse">
<stop stop-color="#FE4139"/>
<stop offset="1" stop-color="#FFBE36"/>
</linearGradient>
<linearGradient id="paint2_linear_194_4054" x1="11.25" y1="7.17285" x2="11.25" y2="9.67285" gradientUnits="userSpaceOnUse">
<stop stop-color="#FE4139"/>
<stop offset="1" stop-color="#FFBE36"/>
</linearGradient>
<linearGradient id="paint3_linear_194_4054" x1="16.25" y1="7.17285" x2="16.25" y2="9.67285" gradientUnits="userSpaceOnUse">
<stop stop-color="#FE4139"/>
<stop offset="1" stop-color="#FFBE36"/>
</linearGradient>
<linearGradient id="paint4_linear_194_4054" x1="19.2616" y1="13.0225" x2="19.2616" y2="35.2995" gradientUnits="userSpaceOnUse">
<stop stop-color="#FE4139"/>
<stop offset="1" stop-color="#FFBE36"/>
</linearGradient>
<linearGradient id="paint5_linear_194_4054" x1="20.925" y1="18.123" x2="20.925" y2="26.873" gradientUnits="userSpaceOnUse">
<stop stop-color="#FE4139"/>
<stop offset="1" stop-color="#FFBE36"/>
</linearGradient>
</defs>
</svg>
