<svg width="40" height="40" viewBox="0 0 40 40" fill="none" xmlns="http://www.w3.org/2000/svg">
<path fill-rule="evenodd" clip-rule="evenodd" d="M25.0775 36.2506C23.0512 37.0871 20.8311 37.549 18.5037 37.549C8.98234 37.549 1.25235 29.819 1.25235 20.2971C1.25235 10.7763 8.98234 3.04629 18.5037 3.04629C28.025 3.04629 35.755 10.7763 35.755 20.2971C35.755 20.6428 36.0356 20.9233 36.3812 20.9233C36.7269 20.9233 37.0074 20.6428 37.0074 20.2971C37.0074 10.085 28.7158 1.79395 18.5037 1.79395C8.29155 1.79395 0 10.0855 0 20.2971C0 30.5098 8.29155 38.8008 18.5037 38.8008C21.0004 38.8008 23.3818 38.3054 25.5559 37.4072C25.875 37.2755 26.0273 36.9088 25.8956 36.5897C25.7633 36.2706 25.3971 36.1183 25.0775 36.2506Z" fill="url(#paint0_linear_194_4070)"/>
<path fill-rule="evenodd" clip-rule="evenodd" d="M0.626179 20.9232H14.5763C14.922 20.9232 15.2025 20.6427 15.2025 20.2971C15.2025 19.9519 14.922 19.6709 14.5763 19.6709H0.626179C0.280531 19.6709 0.280531 20.9232 0.626179 20.9232Z" fill="url(#paint1_linear_194_4070)"/>
<path fill-rule="evenodd" clip-rule="evenodd" d="M6.00475 32.2096C8.42078 30.843 10.7912 29.8451 13.1161 29.2159C13.4497 29.1258 13.6476 28.7816 13.5574 28.448C13.4672 28.1144 13.1231 27.917 12.7895 28.0072C10.3694 28.6619 7.90231 29.6973 5.3881 31.1195C5.08703 31.2893 4.98133 31.6716 5.15115 31.9726C5.32147 32.2742 5.70369 32.3799 6.00475 32.2096Z" fill="url(#paint2_linear_194_4070)"/>
<path fill-rule="evenodd" clip-rule="evenodd" d="M5.3881 9.62441C14.7997 14.9469 23.5497 14.8848 31.6528 9.60387C31.9424 9.41552 32.0245 9.02729 31.8357 8.73775C31.6468 8.44821 31.2586 8.36605 30.9691 8.55491C23.2666 13.5743 14.95 13.5934 6.00475 8.53437C5.70369 8.36405 5.32147 8.47025 5.15115 8.77131C4.98133 9.07188 5.08703 9.45459 5.3881 9.62441Z" fill="url(#paint3_linear_194_4070)"/>
<path fill-rule="evenodd" clip-rule="evenodd" d="M26.8834 14.3344C25.7222 10.4416 23.4495 6.56432 20.1117 2.7086C19.8853 2.44711 19.4895 2.41855 19.2281 2.64498C18.9671 2.8709 18.9385 3.26664 19.1644 3.52813C22.372 7.23308 24.5676 10.9516 25.6832 14.6921C25.7818 15.0237 26.131 15.212 26.4621 15.1134C26.7932 15.0147 26.9821 14.665 26.8834 14.3344Z" fill="url(#paint4_linear_194_4070)"/>
<path fill-rule="evenodd" clip-rule="evenodd" d="M17.1251 37.0865C12.5871 31.4033 10.416 25.7718 10.4731 20.1758C10.5307 14.5758 12.817 9.02338 17.1291 3.50353C17.342 3.23152 17.2934 2.83778 17.0209 2.62488C16.7489 2.41198 16.3551 2.46057 16.1422 2.73258C11.6373 8.49939 9.28088 14.3123 9.22076 20.1633C9.16115 26.0182 11.3988 31.9228 16.1462 37.8685C16.3622 38.1385 16.7564 38.1825 17.0264 37.9671C17.2964 37.7512 17.3405 37.357 17.1251 37.0865Z" fill="url(#paint5_linear_194_4070)"/>
<path fill-rule="evenodd" clip-rule="evenodd" d="M18.5062 34.6365C22.0118 34.6365 33.2674 34.6365 36.773 34.6245C37.6867 34.6245 38.5207 34.097 38.9135 33.2699C38.915 33.2674 38.916 33.2649 38.917 33.2619C39.6128 31.7421 40 30.0574 40 28.2846C40 21.581 34.4641 16.1328 27.6383 16.1328C20.813 16.1328 15.2772 21.581 15.2772 28.2846C15.2772 30.0554 15.6634 31.7386 16.3462 33.2629C16.3482 33.2674 16.3502 33.2714 16.3522 33.2755C16.7474 34.107 17.5855 34.637 18.5062 34.6365ZM18.5062 33.3842C18.0734 33.3847 17.6787 33.1382 17.4888 32.75C16.8752 31.3784 16.5295 29.8706 16.5295 28.2846C16.5295 22.2658 21.5103 17.3852 27.6383 17.3852C33.7668 17.3852 38.7477 22.2658 38.7477 28.2846C38.7477 29.8701 38.402 31.3769 37.7804 32.7364C37.5945 33.1247 37.2018 33.3721 36.771 33.3721C36.7705 33.3721 36.7695 33.3721 36.769 33.3721C33.2639 33.3842 22.0108 33.3842 18.5062 33.3842Z" fill="url(#paint6_linear_194_4070)"/>
<path fill-rule="evenodd" clip-rule="evenodd" d="M32.1869 23.6452C32.3106 23.521 32.5065 23.5049 32.6492 23.6071C32.792 23.7093 32.8396 23.8997 32.7624 24.0575C31.5897 26.5552 29.5309 30.8988 29.1432 31.4408C28.5941 32.2077 27.5256 32.3846 26.7592 31.8356C25.9922 31.2865 25.8154 30.2185 26.3644 29.4516C26.7522 28.9096 30.2001 25.5608 32.1869 23.6452Z" fill="url(#paint7_linear_194_4070)"/>
<path fill-rule="evenodd" clip-rule="evenodd" d="M19.9529 29.9052C18.7196 23.8578 24.1468 20.2746 27.7525 20.2836H27.7555C31.3613 20.2746 36.7885 23.8578 35.5551 29.9052C35.486 30.2438 35.7049 30.5749 36.0436 30.644C36.3822 30.7132 36.7133 30.4943 36.7824 30.1556C38.2086 23.161 31.9253 19.0222 27.754 19.0313C23.5827 19.0222 17.2994 23.161 18.7256 30.1556C18.7947 30.4943 19.1258 30.7132 19.4645 30.644C19.8031 30.5744 20.022 30.2438 19.9529 29.9052Z" fill="url(#paint8_linear_194_4070)"/>
<defs>
<linearGradient id="paint0_linear_194_4070" x1="18.5037" y1="1.79395" x2="18.5037" y2="38.8008" gradientUnits="userSpaceOnUse">
<stop stop-color="#FE4139"/>
<stop offset="1" stop-color="#FFBE36"/>
</linearGradient>
<linearGradient id="paint1_linear_194_4070" x1="7.78473" y1="19.6709" x2="7.78473" y2="20.9232" gradientUnits="userSpaceOnUse">
<stop stop-color="#FE4139"/>
<stop offset="1" stop-color="#FFBE36"/>
</linearGradient>
<linearGradient id="paint2_linear_194_4070" x1="9.32467" y1="27.9854" x2="9.32467" y2="32.2909" gradientUnits="userSpaceOnUse">
<stop stop-color="#FE4139"/>
<stop offset="1" stop-color="#FFBE36"/>
</linearGradient>
<linearGradient id="paint3_linear_194_4070" x1="18.5037" y1="8.45312" x2="18.5037" y2="13.5905" gradientUnits="userSpaceOnUse">
<stop stop-color="#FE4139"/>
<stop offset="1" stop-color="#FFBE36"/>
</linearGradient>
<linearGradient id="paint4_linear_194_4070" x1="22.9608" y1="2.49219" x2="22.9608" y2="15.1396" gradientUnits="userSpaceOnUse">
<stop stop-color="#FE4139"/>
<stop offset="1" stop-color="#FFBE36"/>
</linearGradient>
<linearGradient id="paint5_linear_194_4070" x1="13.2407" y1="2.49219" x2="13.2407" y2="38.1038" gradientUnits="userSpaceOnUse">
<stop stop-color="#FE4139"/>
<stop offset="1" stop-color="#FFBE36"/>
</linearGradient>
<linearGradient id="paint6_linear_194_4070" x1="27.6386" y1="16.1328" x2="27.6386" y2="34.6365" gradientUnits="userSpaceOnUse">
<stop stop-color="#FE4139"/>
<stop offset="1" stop-color="#FFBE36"/>
</linearGradient>
<linearGradient id="paint7_linear_194_4070" x1="29.4222" y1="23.54" x2="29.4222" y2="32.1548" gradientUnits="userSpaceOnUse">
<stop stop-color="#FE4139"/>
<stop offset="1" stop-color="#FFBE36"/>
</linearGradient>
<linearGradient id="paint8_linear_194_4070" x1="27.754" y1="19.0312" x2="27.754" y2="30.6568" gradientUnits="userSpaceOnUse">
<stop stop-color="#FE4139"/>
<stop offset="1" stop-color="#FFBE36"/>
</linearGradient>
</defs>
</svg>
