<svg width="50" height="50" viewBox="0 0 50 50" fill="none" xmlns="http://www.w3.org/2000/svg">
<g clip-path="url(#clip0_437_3)">
<path d="M44.8769 5.12314C41.573 1.81961 37.1803 0 32.5081 0C27.8358 0 23.4436 1.81961 20.1397 5.12314C16.8358 8.42705 15.0166 12.8197 15.0166 17.4919C15.0166 21.6724 16.4734 25.629 19.1463 28.7819L15.6097 32.3185C13.7966 31.3839 11.5097 31.6753 9.99184 33.1932L1.41144 41.774C0.501251 42.6842 0 43.8942 0 45.1813C0 46.4684 0.501251 47.6784 1.41144 48.5886C2.351 49.5277 3.58467 49.9977 4.81873 49.9977C6.05278 49.9977 7.28645 49.5277 8.22601 48.5886L16.8068 40.0078C17.717 39.098 18.2182 37.888 18.2182 36.6005C18.2182 35.8181 18.0328 35.0639 17.683 34.3887L21.2181 30.8533C24.3713 33.5266 28.3279 34.9834 32.5085 34.9834C37.1807 34.9834 41.5733 33.1638 44.8769 29.8603C48.1804 26.5564 50 22.1642 50 17.4915C50 12.8197 48.1804 8.42705 44.8769 5.12314ZM14.735 37.9364L6.15425 46.5172C5.41801 47.2534 4.21944 47.2534 3.48282 46.5172C3.12614 46.1601 2.92969 45.686 2.92969 45.1813C2.92969 44.6766 3.12614 44.2024 3.48282 43.8454L12.0636 35.265C12.7998 34.5284 13.9984 34.5284 14.735 35.265C15.4716 36.0016 15.4716 37.1998 14.735 37.9364ZM42.8051 27.7885C40.0547 30.5389 36.3979 32.0538 32.5081 32.0538C28.6186 32.0538 24.9619 30.5389 22.2115 27.7885C19.4611 25.0381 17.9462 21.3814 17.9462 17.4919C17.9462 13.6021 19.4611 9.9453 22.2115 7.1949C24.9619 4.4445 28.6186 2.92969 32.5081 2.92969C36.3979 2.92969 40.0547 4.4445 42.8051 7.1949C45.5555 9.9453 47.0703 13.6021 47.0703 17.4915C47.0703 21.3814 45.5555 25.0381 42.8051 27.7885Z" fill="url(#paint0_linear_437_3)"/>
<path d="M25.0898 17.5859C24.2811 17.5859 23.625 18.2417 23.625 19.0508V23.7387C23.625 24.5478 24.2811 25.2035 25.0898 25.2035C25.8989 25.2035 26.5547 24.5478 26.5547 23.7387V19.0508C26.5547 18.2417 25.8989 17.5859 25.0898 17.5859Z" fill="url(#paint1_linear_437_3)"/>
<path d="M29.9727 12.7031C29.1639 12.7031 28.5078 13.3589 28.5078 14.168V23.7387C28.5078 24.5478 29.1639 25.2035 29.9727 25.2035C30.7818 25.2035 31.4375 24.5478 31.4375 23.7387V14.168C31.4375 13.3589 30.7818 12.7031 29.9727 12.7031Z" fill="url(#paint2_linear_437_3)"/>
<path d="M34.8555 14.6562C34.0468 14.6562 33.3906 15.312 33.3906 16.1211V23.7387C33.3906 24.5478 34.0468 25.2035 34.8555 25.2035C35.6646 25.2035 36.3203 24.5478 36.3203 23.7387V16.1211C36.3203 15.312 35.6646 14.6562 34.8555 14.6562Z" fill="url(#paint3_linear_437_3)"/>
<path d="M39.7383 9.77344C38.9296 9.77344 38.2734 10.4292 38.2734 11.2383V23.7387C38.2734 24.5478 38.9296 25.2035 39.7383 25.2035C40.5474 25.2035 41.2031 24.5478 41.2031 23.7387V11.2383C41.2031 10.4292 40.5474 9.77344 39.7383 9.77344Z" fill="url(#paint4_linear_437_3)"/>
</g>
<defs>
<linearGradient id="paint0_linear_437_3" x1="25" y1="0" x2="25" y2="49.9977" gradientUnits="userSpaceOnUse">
<stop stop-color="#FE4139"/>
<stop offset="1" stop-color="#FFBE36"/>
</linearGradient>
<linearGradient id="paint1_linear_437_3" x1="25.0898" y1="17.5859" x2="25.0898" y2="25.2035" gradientUnits="userSpaceOnUse">
<stop stop-color="#FE4139"/>
<stop offset="1" stop-color="#FFBE36"/>
</linearGradient>
<linearGradient id="paint2_linear_437_3" x1="29.9727" y1="12.7031" x2="29.9727" y2="25.2035" gradientUnits="userSpaceOnUse">
<stop stop-color="#FE4139"/>
<stop offset="1" stop-color="#FFBE36"/>
</linearGradient>
<linearGradient id="paint3_linear_437_3" x1="34.8555" y1="14.6562" x2="34.8555" y2="25.2035" gradientUnits="userSpaceOnUse">
<stop stop-color="#FE4139"/>
<stop offset="1" stop-color="#FFBE36"/>
</linearGradient>
<linearGradient id="paint4_linear_437_3" x1="39.7383" y1="9.77344" x2="39.7383" y2="25.2035" gradientUnits="userSpaceOnUse">
<stop stop-color="#FE4139"/>
<stop offset="1" stop-color="#FFBE36"/>
</linearGradient>
<clipPath id="clip0_437_3">
<rect width="50" height="50" fill="white"/>
</clipPath>
</defs>
</svg>
